<?xml version="1.0" encoding="UTF-8" standalone="no"?>
<!-- Created with Inkscape (http://www.inkscape.org/) -->

<svg
   width="31.999998"
   height="31.999998"
   viewBox="0 0 8.4666652 8.4666652"
   version="1.1"
   id="svg1"
   xmlns="http://www.w3.org/2000/svg"
   xmlns:svg="http://www.w3.org/2000/svg">
  <defs
     id="defs1" />
  <g
     id="layer1">
    <path
       id="path1"
       style="opacity:1;fill:#2e2e2e;fill-opacity:1;stroke-width:0.257064"
       d="M 3.7036494,0.2645833 V 1.1027749 A 3.175,3.175 0 0 0 2.393652,1.6453774 L 1.8009234,1.0526488 1.0526488,1.8009235 1.6453774,2.3936521 A 3.175,3.175 0 0 0 1.1022581,3.7036495 H 0.2645833 V 4.7619827 H 1.1022581 A 3.175,3.175 0 0 0 1.6448606,6.0724969 L 1.0526488,6.6647087 1.8009234,7.4129834 2.3931353,6.8207715 A 3.175,3.175 0 0 0 3.7036494,7.3638908 V 8.2010489 H 4.7619827 V 7.3638908 A 3.175,3.175 0 0 0 6.0724968,6.8207715 L 6.6647087,7.4129834 7.4129833,6.6647087 6.8207715,6.0724969 A 3.175,3.175 0 0 0 7.363374,4.7619827 H 8.2010488 V 3.7036495 H 7.363374 A 3.175,3.175 0 0 0 6.8202547,2.3936521 L 7.4129833,1.8009235 6.6647087,1.0526488 6.0719801,1.6453774 A 3.175,3.175 0 0 0 4.7619827,1.1027749 V 0.2645833 Z m 0.5291667,2.645833 A 1.3229166,1.3229166 0 0 1 5.5557326,4.2333329 1.3229166,1.3229166 0 0 1 4.2328161,5.5562494 1.3229166,1.3229166 0 0 1 2.9098995,4.2333329 1.3229166,1.3229166 0 0 1 4.2328161,2.9104163 Z" />
  </g>
</svg>
