<?xml version="1.0" encoding="UTF-8" standalone="no"?>
<!-- Created with Inkscape (http://www.inkscape.org/) -->

<svg
   width="32"
   height="32"
   viewBox="0 0 8.4666662 8.4666662"
   version="1.1"
   id="svg1"
   xmlns="http://www.w3.org/2000/svg"
   xmlns:svg="http://www.w3.org/2000/svg">
  <defs
     id="defs1" />
  <g
     id="layer1">
    <path
       id="path1"
       style="fill:#ffffff;stroke-width:0.264583"
       d="M 4.1485425,0.21550846 3.6931909,2.9781082 a 1.4075414,1.4075414 0 0 1 0.4553516,-0.075475 1.4075414,1.4075414 0 0 1 0.4553516,0.075475 z M 2.8164766,3.8548225 0.05387688,4.3101741 2.8164766,4.7655257 A 1.4075414,1.4075414 0 0 1 2.7410012,4.3101741 1.4075414,1.4075414 0 0 1 2.8164766,3.8548225 Z m 2.6641318,0 a 1.4075414,1.4075414 0 0 1 0.075475,0.4553516 1.4075414,1.4075414 0 0 1 -0.075475,0.4553516 L 8.2432081,4.3101741 Z M 3.6931909,5.64224 4.1485425,8.4048397 4.6038941,5.64224 A 1.4075414,1.4075414 0 0 1 4.1485425,5.7177154 1.4075414,1.4075414 0 0 1 3.6931909,5.64224 Z"
       transform="matrix(1.0338654,0,0,1.0338654,-0.05570144,-0.22280674)" />
  </g>
</svg>
